<svg xmlns="http://www.w3.org/2000/svg" xmlns:xlink="http://www.w3.org/1999/xlink" width="1122" zoomAndPan="magnify" viewBox="0 0 841.92 170.25" height="226" preserveAspectRatio="xMidYMid meet" version="1.0"><defs><g/></defs><g fill="#142129" fill-opacity="1"><g transform="translate(12.818928, 123.776126)"><g><path d="M 58.453125 -84.484375 C 58.003906 -84.671875 57.460938 -84.988281 56.828125 -85.4375 C 56.191406 -85.894531 55.285156 -86.328125 54.109375 -86.734375 C 52.929688 -87.140625 51.4375 -87.476562 49.625 -87.75 C 47.820312 -88.019531 45.519531 -88.0625 42.71875 -87.875 L 42.71875 -101.578125 C 46.695312 -101.484375 50.742188 -101.050781 54.859375 -100.28125 C 58.972656 -99.519531 62.296875 -98.328125 64.828125 -96.703125 C 64.285156 -95.523438 63.648438 -94.234375 62.921875 -92.828125 C 62.203125 -91.429688 61.523438 -90.117188 60.890625 -88.890625 C 60.253906 -87.671875 59.710938 -86.65625 59.265625 -85.84375 C 58.816406 -85.03125 58.546875 -84.578125 58.453125 -84.484375 Z M 11.65625 -73.640625 C 11.65625 -77.617188 12.332031 -81.191406 13.6875 -84.359375 C 15.050781 -87.523438 16.882812 -90.304688 19.1875 -92.703125 C 21.5 -95.097656 24.210938 -96.992188 27.328125 -98.390625 C 30.441406 -99.796875 33.71875 -100.722656 37.15625 -101.171875 L 37.15625 -86.9375 C 34.257812 -85.9375 31.863281 -84.191406 29.96875 -81.703125 C 28.070312 -79.222656 27.125 -76.71875 27.125 -74.1875 C 27.125 -70.65625 28.070312 -67.804688 29.96875 -65.640625 C 31.863281 -63.472656 34.257812 -61.570312 37.15625 -59.9375 L 37.15625 -44.484375 C 34.175781 -45.929688 31.191406 -47.488281 28.203125 -49.15625 C 25.222656 -50.832031 22.507812 -52.800781 20.0625 -55.0625 C 17.625 -57.320312 15.613281 -59.941406 14.03125 -62.921875 C 12.445312 -65.910156 11.65625 -69.484375 11.65625 -73.640625 Z M 13.828125 -18.3125 C 15.097656 -17.582031 16.703125 -16.878906 18.640625 -16.203125 C 20.585938 -15.523438 22.597656 -14.890625 24.671875 -14.296875 C 26.753906 -13.710938 28.835938 -13.238281 30.921875 -12.875 C 33.003906 -12.519531 34.945312 -12.34375 36.75 -12.34375 L 37.15625 -12.34375 L 37.15625 0.546875 L 36.890625 0.546875 C 34.722656 0.546875 32.484375 0.429688 30.171875 0.203125 C 27.867188 -0.0234375 25.539062 -0.410156 23.1875 -0.953125 C 20.84375 -1.492188 18.609375 -2.238281 16.484375 -3.1875 C 14.359375 -4.132812 12.523438 -5.285156 10.984375 -6.640625 Z M 42.71875 -57.234375 C 45.707031 -55.878906 48.757812 -54.429688 51.875 -52.890625 C 54.988281 -51.359375 57.8125 -49.484375 60.34375 -47.265625 C 62.875 -45.046875 64.953125 -42.351562 66.578125 -39.1875 C 68.210938 -36.03125 69.03125 -32.097656 69.03125 -27.390625 C 69.03125 -24.140625 68.421875 -20.976562 67.203125 -17.90625 C 65.984375 -14.832031 64.265625 -12.050781 62.046875 -9.5625 C 59.828125 -7.070312 57.085938 -4.96875 53.828125 -3.25 C 50.578125 -1.53125 46.875 -0.398438 42.71875 0.140625 L 42.71875 -12.890625 C 50.132812 -14.691406 53.84375 -19.617188 53.84375 -27.671875 C 53.84375 -30.828125 52.800781 -33.445312 50.71875 -35.53125 C 48.644531 -37.613281 45.976562 -39.554688 42.71875 -41.359375 Z M 42.71875 -57.234375 "/></g></g></g><g fill="#142129" fill-opacity="1"><g transform="translate(86.324089, 123.776126)"><g><path d="M 28.078125 0 L 11.53125 0 L 11.53125 -76.484375 L 28.078125 -76.484375 Z M 29.5625 -100.90625 C 29.5625 -98.1875 28.613281 -95.898438 26.71875 -94.046875 C 24.820312 -92.191406 22.515625 -91.265625 19.796875 -91.265625 C 17.085938 -91.265625 14.804688 -92.210938 12.953125 -94.109375 C 11.097656 -96.015625 10.171875 -98.28125 10.171875 -100.90625 C 10.171875 -103.613281 11.117188 -105.914062 13.015625 -107.8125 C 14.921875 -109.71875 17.179688 -110.671875 19.796875 -110.671875 C 22.515625 -110.671875 24.820312 -109.71875 26.71875 -107.8125 C 28.613281 -105.914062 29.5625 -103.613281 29.5625 -100.90625 Z M 29.5625 -100.90625 "/></g></g></g><g fill="#142129" fill-opacity="1"><g transform="translate(125.789037, 123.776126)"><g><path d="M 39.46875 0.671875 C 34.40625 0.671875 29.972656 -0.429688 26.171875 -2.640625 C 22.378906 -4.859375 19.21875 -7.820312 16.6875 -11.53125 C 14.15625 -15.238281 12.300781 -19.488281 11.125 -24.28125 C 9.945312 -29.070312 9.359375 -34.085938 9.359375 -39.328125 C 9.359375 -46.378906 10.328125 -52.300781 12.265625 -57.09375 C 14.210938 -61.882812 16.703125 -65.796875 19.734375 -68.828125 C 22.765625 -71.859375 26.15625 -74.003906 29.90625 -75.265625 C 33.65625 -76.535156 37.335938 -77.171875 40.953125 -77.171875 C 43.753906 -77.171875 46.421875 -76.851562 48.953125 -76.21875 C 51.484375 -75.582031 53.789062 -74.675781 55.875 -73.5 L 55.875 -59.125 C 54.425781 -60.757812 52.726562 -62.070312 50.78125 -63.0625 C 48.84375 -64.0625 46.742188 -64.5625 44.484375 -64.5625 C 41.773438 -64.5625 39.3125 -63.859375 37.09375 -62.453125 C 34.875 -61.046875 32.992188 -59.164062 31.453125 -56.8125 C 29.921875 -54.46875 28.75 -51.710938 27.9375 -48.546875 C 27.125 -45.390625 26.71875 -42.046875 26.71875 -38.515625 C 26.71875 -34.898438 27.144531 -31.488281 28 -28.28125 C 28.863281 -25.070312 30.085938 -22.289062 31.671875 -19.9375 C 33.253906 -17.582031 35.148438 -15.703125 37.359375 -14.296875 C 39.578125 -12.898438 42.039062 -12.203125 44.75 -12.203125 C 47.007812 -12.203125 49.039062 -12.675781 50.84375 -13.625 C 52.65625 -14.570312 54.332031 -15.816406 55.875 -17.359375 L 55.875 -3.25 C 53.707031 -2.164062 51.222656 -1.238281 48.421875 -0.46875 C 45.617188 0.289062 42.632812 0.671875 39.46875 0.671875 Z M 77.84375 -76.484375 L 77.703125 0 C 77.347656 5.507812 76.242188 10.207031 74.390625 14.09375 C 72.535156 17.988281 70.160156 21.203125 67.265625 23.734375 C 64.367188 26.265625 61.019531 28.070312 57.21875 29.15625 C 53.425781 30.238281 49.363281 30.78125 45.03125 30.78125 C 39.96875 30.78125 34.972656 29.898438 30.046875 28.140625 C 25.117188 26.378906 21.023438 23.421875 17.765625 19.265625 L 27.265625 9.90625 C 28.160156 11.4375 29.304688 12.695312 30.703125 13.6875 C 32.109375 14.6875 33.554688 15.457031 35.046875 16 C 36.546875 16.539062 38.039062 16.925781 39.53125 17.15625 C 41.019531 17.382812 42.351562 17.5 43.53125 17.5 C 49.132812 17.5 53.519531 15.867188 56.6875 12.609375 C 59.851562 9.359375 61.4375 3.800781 61.4375 -4.0625 L 61.4375 -68.765625 L 63.203125 -76.484375 Z M 77.84375 -76.484375 "/></g></g></g><g fill="#142129" fill-opacity="1"><g transform="translate(218.41639, 123.776126)"><g><path d="M 26.3125 -76.484375 L 28.078125 -68.765625 L 28.078125 0 L 11.65625 0 L 11.65625 -76.484375 Z M 68.625 -68.078125 C 70.15625 -66.546875 71.347656 -64.757812 72.203125 -62.71875 C 73.066406 -60.6875 73.703125 -58.5625 74.109375 -56.34375 C 74.523438 -54.132812 74.773438 -51.898438 74.859375 -49.640625 C 74.953125 -47.378906 75 -45.160156 75 -42.984375 L 75 0 L 58.453125 0 L 58.453125 -41.640625 C 58.453125 -44.710938 58.316406 -47.648438 58.046875 -50.453125 C 57.773438 -53.253906 57.140625 -55.738281 56.140625 -57.90625 C 55.148438 -60.082031 53.796875 -61.78125 52.078125 -63 C 50.359375 -64.21875 47.960938 -64.828125 44.890625 -64.828125 C 43.617188 -64.828125 41.921875 -64.625 39.796875 -64.21875 C 37.679688 -63.8125 35.628906 -63.15625 33.640625 -62.25 L 33.640625 -72.6875 C 36.078125 -73.957031 38.71875 -75.039062 41.5625 -75.9375 C 44.414062 -76.84375 47.195312 -77.296875 49.90625 -77.296875 C 53.976562 -77.296875 57.414062 -76.457031 60.21875 -74.78125 C 63.019531 -73.113281 65.820312 -70.878906 68.625 -68.078125 Z M 68.625 -68.078125 "/></g></g></g><g fill="#142129" fill-opacity="1"><g transform="translate(304.398442, 123.776126)"><g><path d="M 54.796875 -46.515625 L 54.796875 -32.8125 L 11.65625 -32.8125 L 11.65625 -46.515625 Z M 54.796875 -46.515625 "/></g></g></g><g fill="#142129" fill-opacity="1"><g transform="translate(370.715841, 123.776126)"><g><path d="M 24.953125 -23.0625 C 24.953125 -18.988281 25.785156 -15.957031 27.453125 -13.96875 C 29.128906 -11.976562 31.550781 -10.800781 34.71875 -10.4375 L 34.71875 0.546875 C 34.351562 0.628906 33.765625 0.671875 32.953125 0.671875 C 29.878906 0.671875 26.914062 0.265625 24.0625 -0.546875 C 21.21875 -1.359375 18.710938 -2.664062 16.546875 -4.46875 C 14.378906 -6.28125 12.679688 -8.675781 11.453125 -11.65625 C 10.234375 -14.644531 9.625 -18.3125 9.625 -22.65625 C 9.625 -26.8125 10.503906 -30.398438 12.265625 -33.421875 C 14.035156 -36.453125 16.296875 -38.941406 19.046875 -40.890625 C 21.804688 -42.835938 24.945312 -44.285156 28.46875 -45.234375 C 32 -46.179688 35.570312 -46.65625 39.1875 -46.65625 L 45.15625 -46.65625 L 45.15625 -37.03125 L 42.171875 -37.03125 C 40.367188 -37.03125 38.472656 -36.847656 36.484375 -36.484375 C 34.492188 -36.117188 32.640625 -35.4375 30.921875 -34.4375 C 29.203125 -33.445312 27.773438 -32.023438 26.640625 -30.171875 C 25.515625 -28.316406 24.953125 -25.945312 24.953125 -23.0625 Z M 67.125 -22.65625 C 67.125 -21.925781 67.171875 -20.859375 67.265625 -19.453125 C 67.359375 -18.054688 67.539062 -16.632812 67.8125 -15.1875 C 68.082031 -13.738281 68.507812 -12.425781 69.09375 -11.25 C 69.6875 -10.082031 70.476562 -9.316406 71.46875 -8.953125 L 67.125 0.140625 C 65.957031 0.140625 64.71875 -0.128906 63.40625 -0.671875 C 62.09375 -1.210938 60.828125 -1.976562 59.609375 -2.96875 C 58.390625 -3.96875 57.347656 -5.078125 56.484375 -6.296875 C 55.628906 -7.523438 54.972656 -8.863281 54.515625 -10.3125 C 53.609375 -8.050781 51.820312 -6.035156 49.15625 -4.265625 C 46.488281 -2.503906 43.53125 -1.21875 40.28125 -0.40625 L 40.28125 -10.71875 C 42.445312 -11.164062 44.410156 -12.046875 46.171875 -13.359375 C 47.941406 -14.671875 49.457031 -16.226562 50.71875 -18.03125 L 50.71875 -46.65625 C 50.71875 -51.082031 50.488281 -54.609375 50.03125 -57.234375 C 49.582031 -59.859375 48.816406 -61.78125 47.734375 -63 C 46.648438 -64.21875 45.316406 -64.984375 43.734375 -65.296875 C 42.148438 -65.617188 40.273438 -65.78125 38.109375 -65.78125 C 36.117188 -65.78125 34.242188 -65.53125 32.484375 -65.03125 C 30.722656 -64.53125 29.09375 -63.941406 27.59375 -63.265625 C 26.101562 -62.585938 24.789062 -61.84375 23.65625 -61.03125 C 22.53125 -60.21875 21.695312 -59.582031 21.15625 -59.125 L 15.046875 -68.484375 C 15.953125 -69.484375 17.304688 -70.5 19.109375 -71.53125 C 20.921875 -72.570312 23.003906 -73.5 25.359375 -74.3125 C 27.710938 -75.132812 30.265625 -75.789062 33.015625 -76.28125 C 35.773438 -76.78125 38.648438 -77.03125 41.640625 -77.03125 C 44.347656 -77.03125 46.988281 -76.757812 49.5625 -76.21875 C 52.144531 -75.675781 54.5 -74.769531 56.625 -73.5 C 58.75 -72.238281 60.601562 -70.546875 62.1875 -68.421875 C 63.769531 -66.296875 64.875 -63.648438 65.5 -60.484375 C 66.132812 -57.316406 66.5625 -54.128906 66.78125 -50.921875 C 67.007812 -47.710938 67.125 -44.523438 67.125 -41.359375 Z M 67.125 -22.65625 "/></g></g></g><g fill="#142129" fill-opacity="1"><g transform="translate(452.086868, 123.776126)"><g><path d="M 44.34375 -38.375 L 74.734375 0 L 56.015625 0 L 33.765625 -29.296875 L 33.765625 -48.140625 L 52.75 -76.484375 L 71.203125 -76.484375 Z M 11.65625 0 L 11.65625 -105.375 L 28.203125 -105.375 L 28.203125 0 Z M 11.65625 0 "/></g></g></g><g fill="#142129" fill-opacity="1"><g transform="translate(531.830475, 123.776126)"><g><path d="M 9.90625 -54.65625 C 9.90625 -58.09375 10.535156 -61.1875 11.796875 -63.9375 C 13.066406 -66.695312 14.832031 -69.046875 17.09375 -70.984375 C 19.351562 -72.929688 21.90625 -74.46875 24.75 -75.59375 C 27.59375 -76.726562 30.554688 -77.429688 33.640625 -77.703125 L 33.640625 -64.140625 C 31.285156 -63.691406 29.453125 -62.742188 28.140625 -61.296875 C 26.828125 -59.847656 26.171875 -57.816406 26.171875 -55.203125 C 26.171875 -53.023438 26.867188 -51.28125 28.265625 -49.96875 C 29.671875 -48.664062 31.460938 -47.515625 33.640625 -46.515625 L 33.640625 -32 C 32.097656 -32.457031 30.535156 -32.976562 28.953125 -33.5625 C 27.367188 -34.15625 25.8125 -34.8125 24.28125 -35.53125 C 19.488281 -38.0625 15.894531 -40.726562 13.5 -43.53125 C 11.101562 -46.332031 9.90625 -50.039062 9.90625 -54.65625 Z M 55.203125 -60.34375 C 52.753906 -61.613281 50.148438 -62.5625 47.390625 -63.1875 C 44.640625 -63.820312 41.90625 -64.234375 39.1875 -64.421875 L 39.1875 -77.84375 C 43.257812 -77.664062 47.015625 -77.101562 50.453125 -76.15625 C 53.890625 -75.207031 57.234375 -73.691406 60.484375 -71.609375 Z M 17.09375 -17.09375 C 18.894531 -15.820312 21.039062 -14.644531 23.53125 -13.5625 C 26.019531 -12.476562 29.160156 -11.9375 32.953125 -11.9375 L 33.640625 -11.9375 L 33.640625 0.671875 C 31.378906 0.671875 29.296875 0.601562 27.390625 0.46875 C 25.492188 0.332031 23.617188 0.0195312 21.765625 -0.46875 C 19.910156 -0.96875 18.035156 -1.671875 16.140625 -2.578125 C 14.242188 -3.484375 12.253906 -4.660156 10.171875 -6.109375 Z M 39.1875 -44.34375 C 41.90625 -43.4375 44.664062 -42.441406 47.46875 -41.359375 C 50.269531 -40.273438 52.820312 -38.921875 55.125 -37.296875 C 57.4375 -35.671875 59.335938 -33.660156 60.828125 -31.265625 C 62.316406 -28.867188 63.0625 -25.859375 63.0625 -22.234375 C 63.0625 -18.710938 62.425781 -15.640625 61.15625 -13.015625 C 59.894531 -10.398438 58.203125 -8.140625 56.078125 -6.234375 C 53.953125 -4.335938 51.441406 -2.847656 48.546875 -1.765625 C 45.660156 -0.679688 42.539062 0.0390625 39.1875 0.40625 L 39.1875 -12.484375 C 42.269531 -13.023438 44.644531 -13.992188 46.3125 -15.390625 C 47.988281 -16.796875 48.828125 -18.671875 48.828125 -21.015625 C 48.828125 -23.367188 47.898438 -25.203125 46.046875 -26.515625 C 44.191406 -27.828125 41.90625 -28.976562 39.1875 -29.96875 Z M 39.1875 -44.34375 "/></g></g></g><g fill="#142129" fill-opacity="1"><g transform="translate(604.521926, 123.776126)"><g><path d="M 11.65625 -105.375 L 28.078125 -105.375 L 28.078125 0 L 11.65625 0 Z M 68.625 -68.078125 C 70.15625 -66.546875 71.347656 -64.757812 72.203125 -62.71875 C 73.066406 -60.6875 73.703125 -58.5625 74.109375 -56.34375 C 74.523438 -54.132812 74.773438 -51.898438 74.859375 -49.640625 C 74.953125 -47.378906 75 -45.160156 75 -42.984375 L 75 0 L 58.453125 0 L 58.453125 -41.640625 C 58.453125 -44.710938 58.316406 -47.648438 58.046875 -50.453125 C 57.773438 -53.253906 57.140625 -55.738281 56.140625 -57.90625 C 55.148438 -60.082031 53.796875 -61.78125 52.078125 -63 C 50.359375 -64.21875 47.960938 -64.828125 44.890625 -64.828125 C 43.617188 -64.828125 41.921875 -64.625 39.796875 -64.21875 C 37.679688 -63.8125 35.628906 -63.15625 33.640625 -62.25 L 33.640625 -72.6875 C 36.078125 -73.957031 38.71875 -75.039062 41.5625 -75.9375 C 44.414062 -76.84375 47.195312 -77.296875 49.90625 -77.296875 C 53.976562 -77.296875 57.414062 -76.457031 60.21875 -74.78125 C 63.019531 -73.113281 65.820312 -70.878906 68.625 -68.078125 Z M 68.625 -68.078125 "/></g></g></g><g fill="#142129" fill-opacity="1"><g transform="translate(687.113507, 123.776126)"><g><path d="M 24.953125 -23.0625 C 24.953125 -18.988281 25.785156 -15.957031 27.453125 -13.96875 C 29.128906 -11.976562 31.550781 -10.800781 34.71875 -10.4375 L 34.71875 0.546875 C 34.351562 0.628906 33.765625 0.671875 32.953125 0.671875 C 29.878906 0.671875 26.914062 0.265625 24.0625 -0.546875 C 21.21875 -1.359375 18.710938 -2.664062 16.546875 -4.46875 C 14.378906 -6.28125 12.679688 -8.675781 11.453125 -11.65625 C 10.234375 -14.644531 9.625 -18.3125 9.625 -22.65625 C 9.625 -26.8125 10.503906 -30.398438 12.265625 -33.421875 C 14.035156 -36.453125 16.296875 -38.941406 19.046875 -40.890625 C 21.804688 -42.835938 24.945312 -44.285156 28.46875 -45.234375 C 32 -46.179688 35.570312 -46.65625 39.1875 -46.65625 L 45.15625 -46.65625 L 45.15625 -37.03125 L 42.171875 -37.03125 C 40.367188 -37.03125 38.472656 -36.847656 36.484375 -36.484375 C 34.492188 -36.117188 32.640625 -35.4375 30.921875 -34.4375 C 29.203125 -33.445312 27.773438 -32.023438 26.640625 -30.171875 C 25.515625 -28.316406 24.953125 -25.945312 24.953125 -23.0625 Z M 67.125 -22.65625 C 67.125 -21.925781 67.171875 -20.859375 67.265625 -19.453125 C 67.359375 -18.054688 67.539062 -16.632812 67.8125 -15.1875 C 68.082031 -13.738281 68.507812 -12.425781 69.09375 -11.25 C 69.6875 -10.082031 70.476562 -9.316406 71.46875 -8.953125 L 67.125 0.140625 C 65.957031 0.140625 64.71875 -0.128906 63.40625 -0.671875 C 62.09375 -1.210938 60.828125 -1.976562 59.609375 -2.96875 C 58.390625 -3.96875 57.347656 -5.078125 56.484375 -6.296875 C 55.628906 -7.523438 54.972656 -8.863281 54.515625 -10.3125 C 53.609375 -8.050781 51.820312 -6.035156 49.15625 -4.265625 C 46.488281 -2.503906 43.53125 -1.21875 40.28125 -0.40625 L 40.28125 -10.71875 C 42.445312 -11.164062 44.410156 -12.046875 46.171875 -13.359375 C 47.941406 -14.671875 49.457031 -16.226562 50.71875 -18.03125 L 50.71875 -46.65625 C 50.71875 -51.082031 50.488281 -54.609375 50.03125 -57.234375 C 49.582031 -59.859375 48.816406 -61.78125 47.734375 -63 C 46.648438 -64.21875 45.316406 -64.984375 43.734375 -65.296875 C 42.148438 -65.617188 40.273438 -65.78125 38.109375 -65.78125 C 36.117188 -65.78125 34.242188 -65.53125 32.484375 -65.03125 C 30.722656 -64.53125 29.09375 -63.941406 27.59375 -63.265625 C 26.101562 -62.585938 24.789062 -61.84375 23.65625 -61.03125 C 22.53125 -60.21875 21.695312 -59.582031 21.15625 -59.125 L 15.046875 -68.484375 C 15.953125 -69.484375 17.304688 -70.5 19.109375 -71.53125 C 20.921875 -72.570312 23.003906 -73.5 25.359375 -74.3125 C 27.710938 -75.132812 30.265625 -75.789062 33.015625 -76.28125 C 35.773438 -76.78125 38.648438 -77.03125 41.640625 -77.03125 C 44.347656 -77.03125 46.988281 -76.757812 49.5625 -76.21875 C 52.144531 -75.675781 54.5 -74.769531 56.625 -73.5 C 58.75 -72.238281 60.601562 -70.546875 62.1875 -68.421875 C 63.769531 -66.296875 64.875 -63.648438 65.5 -60.484375 C 66.132812 -57.316406 66.5625 -54.128906 66.78125 -50.921875 C 67.007812 -47.710938 67.125 -44.523438 67.125 -41.359375 Z M 67.125 -22.65625 "/></g></g></g><g fill="#142129" fill-opacity="1"><g transform="translate(768.484535, 123.776126)"><g><path d="M 26.3125 -76.484375 L 28.078125 -68.625 L 28.078125 0 L 11.65625 0 L 11.65625 -76.484375 Z M 33.640625 -73.09375 C 35.898438 -74.363281 38.609375 -75.335938 41.765625 -76.015625 C 44.929688 -76.691406 49.226562 -77.03125 54.65625 -77.03125 L 54.65625 -59.9375 C 52.125 -60.664062 49.050781 -61.078125 45.4375 -61.171875 C 43.445312 -61.171875 41.429688 -61.007812 39.390625 -60.6875 C 37.359375 -60.375 35.441406 -59.898438 33.640625 -59.265625 Z M 33.640625 -73.09375 "/></g></g></g></svg>